<?xml version="1.0" encoding="UTF-8"?>
<svg id="Layer_1" data-name="Layer 1" xmlns="http://www.w3.org/2000/svg" xmlns:xlink="http://www.w3.org/1999/xlink" viewBox="0 0 165.7 75.74">
  <defs>
    <style>
      .cls-1 {
        fill: #ee3c96;
      }

      .cls-1, .cls-2, .cls-3 {
        stroke-width: 0px;
      }

      .cls-4 {
        clip-path: url(#clippath-2);
      }

      .cls-5 {
        clip-path: url(#clippath-6);
      }

      .cls-2, .cls-6 {
        fill: none;
      }

      .cls-7 {
        clip-path: url(#clippath-1);
      }

      .cls-8 {
        clip-path: url(#clippath-4);
      }

      .cls-9 {
        clip-path: url(#clippath);
      }

      .cls-6 {
        stroke: #fff;
        stroke-width: 7.68px;
      }

      .cls-10 {
        clip-path: url(#clippath-3);
      }

      .cls-3 {
        fill: #fff;
      }

      .cls-11 {
        clip-path: url(#clippath-5);
      }
    </style>
    <clipPath id="clippath">
      <rect class="cls-2" x="5.44" y="12.52" width="156.79" height="54.98"/>
    </clipPath>
    <clipPath id="clippath-1">
      <rect class="cls-2" x="5.02" y="14.54" width="158.01" height="51.04" transform="translate(-4.53 11.38) rotate(-7.55)"/>
    </clipPath>
    <clipPath id="clippath-2">
      <rect class="cls-2" x="5.02" y="14.54" width="158.01" height="51.04" transform="translate(-4.53 11.38) rotate(-7.55)"/>
    </clipPath>
    <clipPath id="clippath-3">
      <rect class="cls-2" x="3.81" y="19.6" width="14.57" height="13.87"/>
    </clipPath>
    <clipPath id="clippath-4">
      <rect class="cls-2" y="32.97" width="7.34" height="6.94"/>
    </clipPath>
    <clipPath id="clippath-5">
      <rect class="cls-2" x="125.76" width="11.98" height="11.27"/>
    </clipPath>
    <clipPath id="clippath-6">
      <rect class="cls-2" x="143.27" y="53.62" width="7.35" height="6.94"/>
    </clipPath>
  </defs>
  <g class="cls-9">
    <g class="cls-7">
      <g class="cls-4">
        <path class="cls-1" d="M80.56,14.78C37.41,20.5,3.93,36.43,5.78,50.34c1.84,13.92,38.32,20.58,81.47,14.86,43.15-5.72,76.63-21.65,74.78-35.56-1.85-13.92-38.32-20.58-81.47-14.86ZM87.14,64.43c-36,4.77-66.64-2.3-68.43-15.79-1.79-13.48,25.95-28.31,61.95-33.08,36-4.77,66.64,2.3,68.43,15.79,1.79,13.48-25.95,28.29-61.95,33.06h0Z"/>
      </g>
    </g>
  </g>
  <path class="cls-6" d="M50.74,30.96c.16.03.31.05.45.06.14.01.27.02.39.02.41,0,.73-.13.94-.38.21-.25.4-.73.56-1.42.06-.31.27-.46.63-.46.5,0,.93.33,1.31,1,.38.67.57,1.45.57,2.34,0,1.2-.37,2.2-1.11,3.01-.74.81-1.65,1.21-2.73,1.21-.33,0-.69-.04-1.07-.12-.37-.09-.98-.28-1.81-.59-.25,1.26-.5,2.35-.74,3.26-.24.92-.49,1.74-.75,2.45-.27.71-.55,1.35-.86,1.92-.31.57-.65,1.15-1.04,1.73-3.04,4.37-7.12,6.56-12.24,6.56-1.42,0-2.72-.2-3.89-.61-1.17-.4-2.17-.97-2.99-1.69-.82-.72-1.47-1.6-1.93-2.63-.46-1.03-.68-2.16-.68-3.42,0-1.4.28-2.68.86-3.87.57-1.18,1.36-2.21,2.36-3.09,1.01-.88,2.18-1.57,3.53-2.07,1.35-.5,2.82-.75,4.41-.75,1.48,0,2.22.35,2.22,1.05,0,.14-.03.26-.09.36-.06.09-.25.36-.58.81-.39.53-.58,1.06-.58,1.59,0,.61.26,1.12.77,1.53.52.4,1.18.6,1.99.6,2.59,0,4.5-1.75,5.72-5.27-.14-.03-.27-.05-.42-.06-.14-.01-.26-.02-.38-.02-.22,0-.45.05-.68.14s-.58.3-1.03.6c-.22.2-.45.3-.7.3-.4,0-.59-.31-.59-.92,0-.53.12-1.05.36-1.56.24-.52.54-.96.92-1.34.38-.38.82-.69,1.32-.93.5-.24,1.02-.36,1.55-.36.33,0,.75.04,1.26.13.31-.87.64-1.66,1-2.38.36-.73.79-1.52,1.3-2.39-.78-.25-1.4-.45-1.87-.58-.46-.14-.84-.26-1.16-.34-.32-.09-.59-.14-.82-.15-.22-.01-.49-.02-.8-.02-.8,0-1.49.19-2.06.57-.57.37-.86.84-.86,1.4,0,.16.05.34.14.52.1.19.23.33.4.44.08.05.16.08.23.08h.69c.42,0,.63.22.63.67,0,.5-.42,1.12-1.25,1.88-.84.78-1.75,1.38-2.74,1.81-.99.41-1.98.62-2.99.62-1.84,0-3.32-.54-4.45-1.61-1.13-1.07-1.69-2.48-1.69-4.2,0-1.11.24-2.16.74-3.13.49-.97,1.16-1.82,2.01-2.54.85-.73,1.84-1.29,2.98-1.69,1.14-.41,2.38-.61,3.72-.61,1.84,0,3.91.47,6.22,1.42.17.06.32.11.44.17.13.05.33.15.61.27.28.12.68.32,1.21.58.53.26,1.28.61,2.26,1.06.14.05.26.11.39.17.13.06.27.11.41.16,2.42-2.34,5.21-3.51,8.36-3.51.94,0,1.84.12,2.67.36.84.23,1.56.56,2.17.98.61.41,1.09.9,1.44,1.46.35.56.52,1.16.52,1.8,0,.67-.16,1.3-.48,1.87-.32.56-.76,1.05-1.34,1.46-.57.4-1.25.72-2.03.96-.78.24-1.62.36-2.54.36-.48,0-1.02-.03-1.63-.1-.61-.07-1.26-.17-1.93-.3-.67-.12-1.33-.27-2-.44-.67-.17-1.29-.35-1.88-.54-.42.72-.8,1.45-1.13,2.17-.33.72-.58,1.4-.75,2.04l.67.13ZM54.38,23.81c.64.22,1.14.37,1.5.45.37.07.73.1,1.09.1.48,0,.87-.09,1.17-.28.31-.18.46-.43.46-.73,0-.23-.12-.42-.36-.58-.24-.17-.52-.26-.86-.26-.48,0-.94.1-1.39.3-.44.2-.98.53-1.62,1ZM67.45,30.25c2.15,0,3.85.61,5.1,1.82,1.25,1.21,1.88,2.85,1.88,4.91,0,1.37-.26,2.65-.77,3.85-.51,1.2-1.22,2.24-2.12,3.12-.91.88-1.97,1.58-3.18,2.09-1.21.51-2.51.77-3.91.77-2.09,0-3.75-.64-4.99-1.92-1.24-1.29-1.86-3.01-1.86-5.18,0-1.26.26-2.45.79-3.59.53-1.14,1.25-2.15,2.15-3.01.91-.86,1.97-1.55,3.16-2.07s2.45-.78,3.75-.78ZM66.99,34.39c-.58,0-1.11.29-1.57.86-.46.57-.68,1.21-.68,1.94,0,.5.13.92.4,1.25.27.33.59.5.98.5.61,0,1.15-.28,1.61-.86.46-.57.69-1.23.69-1.99,0-.5-.13-.91-.4-1.22-.27-.32-.61-.48-1.03-.48ZM88.06,25.19c.06-.22.11-.43.13-.64.03-.21.04-.4.04-.56,0-.37-.07-.64-.2-.82-.12-.18-.39-.4-.81-.65,1.2-.89,2.2-1.5,2.99-1.84.8-.33,1.64-.5,2.53-.5.81,0,1.43.2,1.86.59.43.39.65.94.65,1.66,0,.11,0,.21-.02.32-.01.1-.03.21-.06.36l-3.68,16.63c-.05.22-.1.43-.12.63-.03.19-.04.35-.04.49,0,.87.41,1.3,1.21,1.3.22,0,.48-.04.79-.12.62-.2.97-.3,1.05-.3.2,0,.36.07.48.21.12.14.18.32.18.54,0,.45-.23.93-.67,1.43-.44.5-1.01.95-1.7,1.38-.69.41-1.45.76-2.25,1.04-.81.28-1.59.42-2.35.42-1,0-1.84-.31-2.51-.94-.67-.63-1-1.4-1-2.33v-.45c0-.14.01-.31.04-.51-1.17,1.54-2.22,2.63-3.15,3.29s-1.93.98-2.99.98c-1.28,0-2.29-.49-3.05-1.48-.75-.99-1.12-2.33-1.12-4,0-1.33.25-2.68.74-4.05.5-1.37,1.21-2.61,2.13-3.71,1.82-2.2,3.96-3.31,6.44-3.31.73,0,1.32.08,1.78.24.46.15.92.4,1.36.77l1.34-6.06ZM84.47,34.44c-.61,0-1.17.3-1.67.9-.5.6-.74,1.27-.74,2.02,0,.48.11.86.35,1.15.24.29.57.44.99.44.3,0,.6-.09.9-.26.29-.19.55-.42.77-.71.22-.29.4-.62.54-.98.14-.37.21-.74.21-1.13s-.13-.72-.38-1c-.25-.28-.57-.42-.96-.42ZM107.95,25.19c.06-.22.1-.43.13-.64.03-.21.04-.4.04-.56,0-.37-.06-.64-.19-.82-.12-.18-.39-.4-.82-.65,1.21-.89,2.2-1.5,2.99-1.84.8-.33,1.64-.5,2.53-.5.81,0,1.43.2,1.86.59.44.39.65.94.65,1.66,0,.11,0,.21-.02.32-.01.1-.03.21-.06.36l-3.68,16.63c-.06.22-.1.43-.12.63-.03.19-.04.35-.04.49,0,.87.41,1.3,1.21,1.3.22,0,.48-.04.79-.12.62-.2.97-.3,1.05-.3.2,0,.36.07.48.21.12.14.19.32.19.54,0,.45-.23.93-.67,1.43-.44.5-1.01.95-1.7,1.38-.69.41-1.45.76-2.26,1.04-.81.28-1.59.42-2.35.42-1,0-1.84-.31-2.51-.94-.67-.63-1-1.4-1-2.33v-.45c0-.14.01-.31.04-.51-1.17,1.54-2.22,2.63-3.15,3.29s-1.93.98-2.99.98c-1.28,0-2.3-.49-3.05-1.48-.75-.99-1.12-2.33-1.12-4,0-1.33.25-2.68.74-4.05.5-1.37,1.21-2.61,2.13-3.71,1.82-2.2,3.96-3.31,6.44-3.31.73,0,1.32.08,1.78.24.46.15.91.4,1.36.77l1.34-6.06ZM104.36,34.44c-.61,0-1.17.3-1.67.9-.5.6-.74,1.27-.74,2.02,0,.48.11.86.35,1.15.24.29.57.44.99.44.31,0,.61-.09.9-.26.29-.19.55-.42.76-.71.23-.29.41-.62.54-.98.14-.37.21-.74.21-1.13s-.13-.72-.38-1-.57-.42-.96-.42ZM115.86,35.39c.14-.64.2-1.09.2-1.34,0-.58-.32-1.06-.96-1.42,1.95-1.62,3.8-2.43,5.56-2.43.72,0,1.3.18,1.72.54.43.36.65.87.65,1.51v.46c0,.08-.03.19-.08.33l-1.42,6.65c-.05.23-.1.44-.13.63-.03.19-.04.35-.04.49,0,.42.11.76.34,1.01.23.24.53.37.92.37.17,0,.32-.02.46-.06.14-.04.53-.17,1.17-.4h.16c.42,0,.63.24.63.71s-.23.97-.67,1.47c-.44.5-1.01.95-1.69,1.38-.68.41-1.42.76-2.24,1.04-.8.28-1.57.42-2.3.42-1.11,0-2.04-.31-2.78-.94-.74-.63-1.1-1.43-1.1-2.41,0-.41.04-.82.12-1.21l1.47-6.8ZM121.37,22.31c.98,0,1.76.26,2.35.78.58.51.88,1.18.88,2.02,0,.5-.13.98-.38,1.43-.25.44-.6.83-1.05,1.16-.44.33-.95.61-1.52.82-.57.21-1.16.31-1.78.31-.89,0-1.6-.25-2.13-.75-.53-.5-.8-1.17-.8-2.01,0-.5.12-.97.36-1.41.24-.45.57-.85.98-1.19.42-.36.9-.63,1.42-.84.53-.21,1.09-.32,1.67-.32ZM131.4,40.66c0,.48.2.88.6,1.21.41.33.9.5,1.49.5.39,0,.76-.03,1.11-.1.35-.08.73-.2,1.14-.36.42-.17.89-.4,1.4-.67.52-.28,1.14-.63,1.87-1.04.33-.2.67-.3,1-.3.28,0,.51.09.68.28.18.18.28.39.28.64,0,.92-.75,1.98-2.26,3.18-2.45,1.95-5,2.92-7.64,2.92-1.06,0-2.02-.17-2.89-.5-.87-.33-1.62-.81-2.26-1.42-.64-.61-1.14-1.34-1.49-2.17-.35-.84-.52-1.75-.52-2.75,0-1.31.3-2.57.9-3.77.6-1.2,1.41-2.25,2.42-3.15,1.02-.91,2.2-1.63,3.54-2.17s2.75-.82,4.23-.82c1.58,0,2.88.4,3.9,1.21,1.02.8,1.53,1.85,1.53,3.13,0,1-.37,1.92-1.11,2.78-.73.85-1.81,1.57-3.23,2.15-.67.31-1.43.54-2.29.71-.87.16-1.66.24-2.39.24v.26ZM131.82,36.65c2.23-.33,3.35-.96,3.35-1.89,0-.28-.09-.51-.25-.68-.16-.19-.37-.28-.62-.28-.53,0-1.02.27-1.47.8-.44.53-.78,1.21-1,2.05Z"/>
  <path class="cls-1" d="M50.74,30.96c.17.03.32.05.46.07.14.01.27.02.38.02.41,0,.73-.12.94-.37.21-.26.4-.73.56-1.42.06-.31.27-.46.63-.46.5,0,.94.34,1.32,1,.37.66.56,1.44.56,2.34,0,1.2-.37,2.2-1.11,3.01-.74.81-1.65,1.21-2.74,1.21-.34,0-.69-.04-1.06-.13s-.98-.28-1.82-.59c-.25,1.25-.49,2.34-.73,3.27-.24.92-.49,1.73-.76,2.44-.26.71-.54,1.35-.85,1.92-.31.57-.65,1.15-1.05,1.74-3.03,4.37-7.12,6.56-12.24,6.56-1.42,0-2.72-.2-3.89-.6-1.17-.4-2.16-.97-2.99-1.69-.82-.73-1.46-1.61-1.92-2.64-.46-1.02-.69-2.16-.69-3.42,0-1.4.28-2.68.85-3.87.57-1.18,1.36-2.21,2.36-3.09,1-.88,2.18-1.57,3.53-2.07,1.35-.5,2.82-.76,4.41-.76,1.48,0,2.22.35,2.22,1.05,0,.14-.03.26-.09.36-.06.1-.25.37-.59.81-.39.53-.59,1.06-.59,1.59,0,.61.26,1.12.77,1.53.51.4,1.18.6,1.99.6,2.59,0,4.49-1.76,5.72-5.27-.14-.02-.28-.04-.43-.05-.14-.02-.26-.03-.37-.03-.22,0-.45.05-.69.14-.24.1-.58.3-1.02.6-.22.19-.46.29-.71.29-.39,0-.58-.31-.58-.92,0-.53.11-1.05.35-1.57.24-.51.54-.96.92-1.34.38-.37.82-.68,1.32-.92.5-.24,1.02-.36,1.55-.36.33,0,.75.04,1.25.13.31-.86.64-1.65,1-2.38.36-.73.8-1.52,1.3-2.38-.78-.25-1.4-.44-1.86-.59-.46-.14-.85-.25-1.17-.33-.32-.09-.59-.13-.82-.14-.22-.02-.48-.03-.79-.03-.81,0-1.49.19-2.07.57-.57.37-.86.84-.86,1.4,0,.17.05.34.14.52.1.18.23.33.4.44.09.06.16.09.23.09h.69c.42,0,.63.22.63.66,0,.51-.42,1.13-1.25,1.88-.84.78-1.76,1.38-2.75,1.8-.99.41-1.98.62-2.99.62-1.84,0-3.32-.54-4.45-1.61-1.13-1.07-1.69-2.47-1.69-4.19,0-1.12.24-2.16.73-3.14.49-.97,1.16-1.82,2.01-2.54.85-.73,1.85-1.29,2.99-1.69,1.14-.41,2.39-.61,3.73-.61,1.84,0,3.91.47,6.23,1.42.16.06.31.11.43.17.12.06.33.15.6.27.28.13.69.32,1.22.59.53.26,1.28.62,2.25,1.06.14.06.27.11.4.17.12.05.26.11.4.16,2.42-2.34,5.21-3.51,8.35-3.51.95,0,1.84.12,2.67.36.84.24,1.57.57,2.18.99.61.41,1.09.9,1.44,1.46.35.56.53,1.15.53,1.79s-.16,1.29-.48,1.86c-.32.57-.76,1.05-1.34,1.46-.57.4-1.24.72-2.02.96-.78.23-1.63.35-2.55.35-.47,0-1.01-.03-1.62-.1s-1.25-.16-1.92-.29c-.67-.13-1.34-.28-2.01-.44-.67-.17-1.3-.35-1.88-.54-.42.73-.8,1.45-1.13,2.18-.34.72-.58,1.4-.75,2.04l.66.13ZM54.38,23.82c.64.22,1.14.37,1.5.44.36.07.73.1,1.09.1.48,0,.87-.09,1.17-.27.31-.18.46-.43.46-.73,0-.22-.12-.41-.36-.58-.24-.17-.53-.26-.86-.26-.47,0-.93.1-1.38.29-.44.19-.98.53-1.62,1Z"/>
  <path class="cls-1" d="M67.46,30.25c2.14,0,3.84.61,5.1,1.82,1.26,1.21,1.89,2.85,1.89,4.91,0,1.37-.26,2.65-.77,3.85-.52,1.2-1.23,2.24-2.14,3.11-.91.87-1.97,1.57-3.18,2.08-1.21.51-2.51.77-3.9.77-2.09,0-3.75-.64-4.99-1.92-1.24-1.28-1.85-3.01-1.85-5.18,0-1.25.26-2.45.79-3.59.53-1.14,1.24-2.15,2.15-3.01.91-.87,1.96-1.56,3.16-2.08,1.2-.51,2.45-.77,3.76-.77ZM67,34.39c-.58,0-1.11.29-1.57.86-.46.57-.69,1.21-.69,1.94,0,.5.13.92.39,1.25.27.34.6.5.99.5.61,0,1.15-.28,1.61-.85.46-.57.69-1.24.69-1.99,0-.5-.13-.91-.4-1.22-.26-.32-.6-.48-1.02-.48Z"/>
  <path class="cls-1" d="M88.06,25.2c.06-.22.1-.44.13-.65.03-.21.04-.4.04-.56,0-.36-.07-.63-.2-.82-.13-.18-.4-.4-.81-.65,1.2-.9,2.19-1.51,2.99-1.85.79-.33,1.64-.5,2.53-.5.81,0,1.43.2,1.86.59.43.39.65.95.65,1.68,0,.11,0,.21-.03.31-.01.1-.03.21-.06.35l-3.67,16.64c-.06.22-.1.43-.13.63-.03.19-.04.36-.04.49,0,.87.4,1.3,1.22,1.3.22,0,.48-.04.79-.13.61-.19.96-.29,1.05-.29.19,0,.35.07.48.21.12.14.19.31.19.54,0,.45-.23.92-.67,1.42-.44.5-1.01.96-1.71,1.38-.7.42-1.45.77-2.25,1.05-.81.28-1.59.42-2.34.42-1,0-1.84-.31-2.51-.94-.67-.63-1-1.4-1-2.32v-.46c0-.14.01-.31.04-.5-1.17,1.53-2.22,2.63-3.16,3.28-.93.65-1.93.98-2.99.98-1.28,0-2.3-.49-3.05-1.48-.75-.99-1.12-2.32-1.12-4,0-1.33.25-2.68.75-4.05.5-1.37,1.21-2.61,2.14-3.72,1.81-2.21,3.95-3.31,6.43-3.31.73,0,1.32.08,1.78.24.46.15.91.41,1.36.77l1.34-6.06ZM84.46,34.43c-.61,0-1.17.3-1.68.9-.5.6-.75,1.27-.75,2.02,0,.47.12.85.36,1.15.24.29.57.43.99.43.31,0,.6-.09.89-.26.29-.18.55-.42.77-.71.22-.29.4-.62.54-.98.14-.36.21-.74.21-1.13s-.13-.73-.38-1c-.25-.28-.57-.42-.96-.42Z"/>
  <path class="cls-1" d="M107.96,25.2c.06-.22.1-.44.13-.65.03-.21.04-.4.04-.56,0-.36-.07-.63-.2-.82-.13-.18-.4-.4-.81-.65,1.2-.9,2.19-1.51,2.99-1.85.79-.33,1.64-.5,2.53-.5.81,0,1.43.2,1.86.59.43.39.65.95.65,1.68,0,.11,0,.21-.03.31-.01.1-.03.21-.06.35l-3.67,16.64c-.06.22-.1.43-.13.63-.03.19-.04.36-.04.49,0,.87.4,1.3,1.22,1.3.22,0,.48-.04.79-.13.61-.19.96-.29,1.05-.29.19,0,.35.07.48.21.12.14.19.31.19.54,0,.45-.23.92-.67,1.42-.44.5-1.01.96-1.71,1.38-.7.42-1.45.77-2.25,1.05-.81.28-1.59.42-2.34.42-1,0-1.84-.31-2.51-.94-.67-.63-1-1.4-1-2.32v-.46c0-.14.01-.31.04-.5-1.17,1.53-2.22,2.63-3.16,3.28-.93.65-1.93.98-2.99.98-1.28,0-2.3-.49-3.05-1.48-.75-.99-1.12-2.32-1.12-4,0-1.33.25-2.68.75-4.05.5-1.37,1.21-2.61,2.14-3.72,1.81-2.21,3.95-3.31,6.43-3.31.73,0,1.32.08,1.78.24.46.15.91.41,1.36.77l1.34-6.06ZM104.36,34.43c-.61,0-1.17.3-1.68.9-.5.6-.75,1.27-.75,2.02,0,.47.12.85.36,1.15.24.29.57.43.99.43.31,0,.6-.09.89-.26.29-.18.55-.42.77-.71.22-.29.4-.62.54-.98.14-.36.21-.74.21-1.13s-.13-.73-.38-1c-.25-.28-.57-.42-.96-.42Z"/>
  <path class="cls-1" d="M115.86,35.39c.14-.64.2-1.08.2-1.34,0-.59-.32-1.06-.96-1.42,1.95-1.62,3.8-2.42,5.56-2.42.73,0,1.3.18,1.74.54.43.36.65.86.65,1.5v.47c0,.08-.03.19-.09.33l-1.42,6.64c-.06.22-.1.43-.13.63-.03.19-.04.36-.04.49,0,.42.11.76.33,1.01.23.25.54.37.93.37.16,0,.31-.02.45-.06.14-.04.53-.18,1.17-.4h.17c.42,0,.63.24.63.71s-.23.97-.67,1.46c-.45.5-1.01.96-1.69,1.38-.68.42-1.43.77-2.24,1.05-.81.28-1.57.42-2.3.42-1.11,0-2.04-.31-2.78-.94-.74-.63-1.11-1.43-1.11-2.41,0-.42.04-.82.13-1.21l1.46-6.81ZM121.37,22.31c.97,0,1.75.26,2.34.77.59.52.88,1.19.88,2.02,0,.51-.13.98-.38,1.43-.25.44-.6.83-1.05,1.17-.44.34-.95.61-1.52.82-.57.2-1.16.31-1.78.31-.89,0-1.6-.25-2.13-.75-.53-.5-.79-1.17-.79-2.01,0-.5.11-.97.35-1.41.24-.45.56-.84.98-1.19.42-.35.89-.63,1.42-.84.53-.21,1.09-.31,1.68-.31Z"/>
  <path class="cls-1" d="M131.4,40.66c0,.47.2.87.6,1.21.41.34.9.5,1.49.5.39,0,.76-.03,1.11-.1.35-.07.73-.18,1.15-.35.42-.17.89-.39,1.4-.67.51-.28,1.14-.63,1.86-1.05.33-.2.67-.3,1-.3.28,0,.51.09.69.27.18.18.27.4.27.65,0,.93-.75,1.99-2.26,3.18-2.45,1.95-5,2.93-7.65,2.93-1.06,0-2.02-.17-2.88-.5-.86-.33-1.61-.81-2.25-1.42-.64-.61-1.14-1.34-1.49-2.17-.35-.84-.52-1.76-.52-2.76,0-1.31.3-2.56.89-3.76.6-1.2,1.41-2.25,2.42-3.16,1.02-.91,2.2-1.63,3.54-2.17,1.34-.54,2.74-.82,4.22-.82,1.59,0,2.89.41,3.9,1.22,1.02.81,1.53,1.85,1.53,3.13,0,1-.37,1.92-1.11,2.77-.74.85-1.82,1.57-3.23,2.15-.67.31-1.44.54-2.31.71-.86.17-1.66.25-2.38.25v.26ZM131.82,36.64c2.23-.33,3.34-.96,3.34-1.88,0-.28-.09-.51-.26-.69-.17-.18-.37-.27-.63-.27-.53,0-1.02.27-1.46.8-.44.53-.77,1.21-1,2.04Z"/>
  <path class="cls-1" d="M145.39,49.32c.14.35.24.71.31,1.09.07.37.1.75.1,1.13,0,.38-.05.75-.12,1.12-.08.37-.19.73-.34,1.08-.15.35-.33.68-.54,1-.21.31-.46.6-.73.87-.27.27-.56.51-.88.71-.32.21-.65.39-1,.53-6.38,2.41-12.88,4.48-19.48,6.21-6.6,1.73-13.27,3.12-20.02,4.15s-13.53,1.72-20.34,2.05c-6.82.33-13.63.3-20.44-.09-.38-.03-.75-.1-1.11-.21-.36-.1-.71-.24-1.05-.42-.34-.17-.65-.38-.95-.61-.3-.24-.57-.5-.81-.78-.25-.29-.46-.6-.65-.93-.19-.33-.34-.68-.46-1.04-.12-.36-.2-.73-.25-1.1s-.06-.75-.03-1.13c.03-.38.09-.77.2-1.14.1-.37.24-.73.41-1.08.17-.34.38-.67.62-.97s.51-.58.8-.83.61-.47.95-.66c.34-.19.69-.34,1.06-.46.37-.12.74-.2,1.13-.24.38-.04.77-.05,1.15-.01,6.35.35,12.7.36,19.06.05,6.35-.31,12.67-.95,18.96-1.91,6.29-.97,12.51-2.25,18.66-3.86,6.15-1.61,12.21-3.53,18.16-5.77.36-.15.73-.26,1.11-.33s.76-.11,1.15-.11.77.04,1.15.12.75.19,1.1.35c.36.15.69.34,1.01.56s.61.47.88.74c.27.28.51.58.72.9.21.32.38.67.53,1.03Z"/>
  <path class="cls-3" d="M64.32,61.15c.11.06.16.14.17.26.01.12-.02.22-.09.31-.06.07-.14.11-.22.11-.08,0-.17-.01-.26-.06-.1-.05-.2-.09-.3-.12-.1-.03-.21-.05-.33-.06-.22-.01-.42.01-.6.08-.18.06-.33.15-.46.27-.13.13-.23.27-.31.44-.07.17-.12.36-.13.58-.02.25,0,.47.07.65.06.19.15.35.27.48.12.13.26.23.43.3.17.07.36.11.56.12.11,0,.21,0,.32,0,.11-.02.22-.05.32-.09.1-.04.18-.05.26-.03.08.02.15.07.2.14.08.11.1.22.08.32-.03.1-.1.18-.2.22-.11.04-.22.08-.34.11-.11.03-.23.06-.34.07-.11.01-.22.01-.34,0-.3-.02-.58-.08-.84-.19-.26-.11-.49-.26-.69-.45-.19-.2-.34-.44-.45-.72-.1-.28-.14-.61-.12-.97.02-.32.09-.6.2-.86.12-.26.29-.48.5-.67.21-.19.46-.33.73-.42.28-.09.58-.13.9-.11.17,0,.34.03.51.09.17.05.33.12.48.2Z"/>
  <path class="cls-3" d="M66.15,65.38c-.35-.01-.65-.09-.91-.25-.25-.15-.44-.36-.57-.61-.13-.26-.18-.54-.17-.86.01-.37.1-.68.26-.94.16-.26.36-.45.6-.58.25-.14.51-.2.78-.19.21,0,.4.06.59.15.19.1.35.22.48.37.14.15.25.33.32.53.08.2.11.41.1.63,0,.1-.05.18-.13.24-.07.06-.16.09-.26.09l-2.36-.09-.15-.62,2.25.09-.14.11v-.16c0-.12-.05-.23-.12-.32-.07-.1-.16-.17-.27-.23-.11-.06-.23-.1-.36-.1-.13,0-.24,0-.35.04-.1.03-.2.08-.28.15-.08.07-.14.18-.2.31-.05.13-.08.29-.09.49,0,.22.03.41.12.57.09.15.21.28.35.37.14.09.29.13.46.14.15,0,.27,0,.37-.03.09-.02.16-.05.21-.08.06-.03.11-.06.16-.09.07-.03.14-.04.21-.04.09,0,.16.04.22.1.06.06.08.13.08.21,0,.11-.06.21-.18.3-.11.09-.26.16-.46.22-.19.06-.39.09-.6.08Z"/>
  <path class="cls-3" d="M68.74,65.02c0,.11-.04.2-.11.27-.07.07-.17.1-.27.09-.1,0-.19-.04-.26-.11-.07-.07-.1-.16-.1-.27l.09-3.81c0-.1.04-.19.11-.26.08-.07.17-.11.27-.11.11,0,.19.05.26.12.07.07.1.16.1.26l-.09,3.81Z"/>
  <path class="cls-3" d="M70.86,65.49c-.35,0-.65-.08-.91-.23-.26-.15-.45-.34-.59-.6-.13-.26-.2-.54-.2-.86,0-.37.09-.68.24-.94.15-.26.35-.46.6-.6.24-.14.5-.21.77-.2.21,0,.4.05.59.14.19.09.35.21.49.37.15.15.26.32.34.52.08.2.11.41.11.63,0,.1-.05.18-.12.24-.07.06-.16.09-.26.09l-2.36-.03-.17-.61,2.25.03-.13.12v-.16c-.01-.12-.06-.23-.14-.32-.07-.1-.17-.17-.28-.23-.11-.06-.23-.09-.35-.09-.13,0-.24,0-.35.04-.1.03-.2.09-.28.16-.08.07-.14.18-.19.31-.05.13-.07.3-.08.5,0,.22.04.41.14.57.09.15.21.27.35.36.15.08.3.12.47.13.15,0,.27-.01.37-.03.09-.03.16-.06.21-.09.06-.03.11-.06.15-.09.07-.03.14-.05.21-.05.09,0,.16.03.22.09.06.06.09.13.09.21,0,.11-.06.21-.18.3-.11.09-.26.17-.45.24-.19.06-.39.09-.6.09Z"/>
  <path class="cls-3" d="M74.33,62.08c.28,0,.54.07.77.22.23.15.41.35.54.6.14.25.21.54.21.88,0,.34-.07.63-.2.89-.13.26-.31.47-.54.61-.22.14-.47.21-.75.21-.17,0-.32-.02-.47-.07-.14-.06-.27-.12-.38-.2-.11-.09-.19-.17-.26-.25-.06-.09-.09-.16-.09-.21l.2-.09v.45c0,.11-.03.2-.1.27-.07.07-.16.1-.26.1-.1,0-.19-.03-.26-.09-.07-.07-.1-.16-.1-.27l-.03-3.87c0-.1.03-.19.1-.26.07-.07.16-.11.26-.12.11,0,.2.04.26.11.07.07.11.16.11.26v1.57s-.09-.05-.09-.05c0-.06.03-.12.09-.2.06-.07.13-.15.23-.22.1-.08.21-.14.34-.2.12-.05.26-.08.41-.09ZM74.24,62.76c-.18,0-.34.06-.48.14-.14.09-.24.21-.31.37-.07.15-.11.33-.11.53s.04.37.11.53c.08.16.19.28.32.37.14.09.3.13.48.13.18,0,.34-.04.47-.14.13-.09.23-.21.31-.37.07-.16.11-.33.11-.53s-.04-.37-.12-.53c-.07-.15-.18-.27-.31-.37-.13-.09-.29-.14-.47-.14Z"/>
  <path class="cls-3" d="M76.59,65.41c-.1,0-.19-.03-.26-.1-.07-.07-.11-.16-.11-.26l-.05-2.54c0-.11.03-.2.09-.27.07-.07.16-.11.26-.11s.2.03.26.1c.07.07.11.16.12.26v.58s-.04-.42-.04-.42c.04-.1.1-.18.17-.26.07-.08.15-.14.24-.2.09-.05.18-.09.28-.12.1-.03.2-.04.31-.04.12,0,.23.03.31.09.09.07.14.15.14.25,0,.14-.03.24-.1.3-.07.06-.14.09-.22.09-.08,0-.15,0-.22-.03-.06-.03-.13-.05-.21-.05-.07,0-.15.03-.23.07-.07.03-.14.09-.2.17-.06.07-.11.17-.14.27-.03.11-.05.24-.05.38l.03,1.46c0,.11-.03.2-.1.27-.07.07-.16.11-.26.11Z"/>
  <path class="cls-3" d="M81.17,61.9c.11,0,.2.03.27.1.07.07.11.16.12.27l.09,2.6c0,.11-.03.2-.09.27-.07.07-.16.11-.26.11-.11,0-.2-.03-.27-.09-.07-.07-.11-.16-.11-.26v-.31s.13.05.13.05c0,.05-.02.12-.08.2-.06.08-.13.16-.23.24-.09.07-.2.14-.34.2-.13.06-.28.09-.43.09-.28.01-.54-.05-.78-.19-.23-.14-.42-.33-.56-.58-.14-.26-.22-.55-.23-.88-.01-.34.04-.64.16-.9.12-.26.3-.47.52-.62.22-.16.47-.24.74-.26.17,0,.34.02.48.07.15.05.28.11.4.19.11.08.2.16.26.25.06.08.1.15.1.2l-.22.09-.02-.44c0-.11.02-.2.09-.27.07-.08.16-.12.26-.13ZM80.03,64.7c.18,0,.34-.06.47-.15.14-.1.24-.22.31-.38.07-.16.1-.33.09-.53-.01-.2-.06-.37-.14-.53-.08-.15-.19-.27-.33-.36-.14-.09-.3-.12-.48-.12-.18,0-.33.06-.47.15-.13.1-.23.23-.31.38-.07.16-.1.34-.09.54,0,.19.05.37.13.52.09.15.2.27.33.36.14.09.3.13.48.12Z"/>
  <path class="cls-3" d="M82.04,62l1.46-.08c.1,0,.18.02.25.09.07.06.11.13.12.23,0,.1-.03.18-.09.25-.06.07-.14.11-.24.11l-1.46.08c-.1,0-.18-.02-.25-.09-.07-.07-.1-.15-.11-.25,0-.1.02-.17.09-.24.06-.06.14-.1.24-.1ZM82.66,61.19c.11,0,.2.03.27.1.07.07.11.16.12.26l.14,2.73c0,.06.01.11.03.14.03.03.06.06.09.08.04.01.08.01.13,0,.05,0,.1-.01.14-.03.04-.02.09-.03.14-.03.06,0,.11.02.16.07s.08.13.09.22c0,.11-.06.21-.18.3-.13.08-.26.12-.4.13-.09,0-.18,0-.29,0-.1-.01-.2-.04-.3-.09-.1-.06-.18-.14-.25-.25-.06-.11-.1-.26-.11-.47l-.14-2.76c0-.11.02-.2.09-.28.07-.08.16-.12.26-.13Z"/>
  <path class="cls-3" d="M85.06,64.69c0,.11-.03.2-.09.28-.06.07-.15.11-.26.12-.1,0-.19-.03-.27-.09-.07-.07-.11-.16-.12-.26l-.15-2.53c0-.11.02-.2.09-.27.07-.07.15-.11.26-.12.11,0,.2.03.27.09.08.06.12.15.13.26l.15,2.53ZM84.49,61.4c-.14,0-.24-.01-.31-.05-.06-.04-.09-.12-.09-.24v-.11c-.01-.12.01-.2.08-.26.06-.05.16-.08.29-.09.14-.01.24,0,.3.05.06.04.1.12.1.24v.11c.01.12-.01.2-.07.26-.06.05-.16.07-.3.09Z"/>
  <path class="cls-3" d="M87.05,61.55c.31-.02.54.03.71.14.16.11.28.28.36.48.08.21.13.44.14.7l.12,1.57c0,.11-.02.2-.09.28-.06.07-.15.11-.26.12-.11,0-.2-.02-.27-.09-.07-.07-.11-.16-.12-.26l-.12-1.57c0-.13-.03-.25-.08-.36-.05-.11-.12-.19-.21-.25-.1-.06-.23-.08-.39-.07-.17.01-.3.06-.41.13-.1.07-.18.17-.23.28-.05.11-.07.24-.07.37l.12,1.57c0,.11-.03.2-.09.28-.06.07-.15.11-.26.12-.1.01-.19-.01-.27-.08-.07-.07-.11-.16-.12-.26l-.19-2.53c0-.11.02-.2.09-.27.07-.08.15-.12.26-.14.11,0,.2.03.27.09.08.06.12.15.13.26l.02.26h-.09c.03-.08.08-.16.14-.25.06-.09.14-.16.22-.24.09-.08.19-.14.31-.2.12-.06.25-.09.38-.1Z"/>
  <path class="cls-3" d="M89.98,61.32c.17-.02.33,0,.48.04.15.04.28.09.39.16.11.07.2.14.27.22.07.08.1.15.11.2l-.15.09-.04-.44c-.01-.1.01-.19.08-.27.07-.08.15-.12.25-.14.11-.01.2.02.27.09.08.06.12.15.14.26l.25,2.73c.03.36-.02.65-.15.88-.13.23-.32.4-.56.52-.24.12-.5.19-.78.22-.09,0-.19,0-.32,0-.13,0-.26-.02-.37-.04-.12-.02-.21-.03-.28-.05-.13-.03-.22-.09-.27-.17-.05-.07-.07-.16-.05-.25.02-.12.07-.21.15-.26.08-.05.16-.06.26-.03.04,0,.11.02.2.05.1.03.21.05.32.07.11.02.21.03.31.03.31-.03.53-.11.66-.25s.19-.31.17-.54l-.04-.54.08.05c0,.05-.02.12-.07.2-.05.08-.11.16-.2.25-.09.08-.2.15-.32.21-.13.06-.26.1-.41.12-.3.02-.57-.03-.81-.14-.24-.12-.45-.31-.6-.55-.16-.24-.26-.53-.29-.86-.03-.34.01-.64.13-.91.11-.27.27-.48.48-.65.21-.16.46-.26.75-.29ZM90.16,61.98c-.19.02-.35.08-.48.18-.13.1-.23.24-.29.4-.06.17-.09.35-.07.54.02.19.07.36.16.51.1.14.21.25.36.33.15.08.31.11.5.09s.34-.08.48-.18c.14-.11.23-.24.3-.4.06-.16.09-.33.07-.53-.02-.2-.07-.37-.17-.52-.09-.15-.21-.27-.36-.34-.15-.08-.31-.11-.5-.09Z"/>
  <path class="cls-3" d="M95.12,59.58c.09-.01.18,0,.26,0,.09.01.17.04.23.09.07.05.11.11.12.2.01.11-.01.2-.07.26-.05.07-.12.11-.2.11-.04,0-.1,0-.17,0-.07-.01-.14-.01-.21,0-.1.01-.17.05-.23.1-.05.05-.08.11-.09.17-.01.06-.01.12,0,.16l.36,3.12c.01.11-.01.2-.08.28-.06.07-.14.12-.25.13-.11.02-.2,0-.28-.07-.08-.07-.13-.16-.14-.26l-.36-3.11c-.03-.29.04-.55.22-.77.19-.22.48-.35.88-.4ZM95.34,60.88c.1-.01.18.01.26.07.07.05.11.13.13.23.01.1-.01.18-.08.26-.06.07-.13.12-.23.13l-1.62.19c-.1.01-.18-.01-.26-.07-.07-.06-.11-.14-.13-.24-.01-.1.01-.19.08-.26.06-.07.13-.11.23-.12l1.62-.19Z"/>
  <path class="cls-3" d="M99.3,61.98c.04.33,0,.63-.11.91-.11.27-.29.5-.52.67-.23.18-.5.28-.81.32-.31.04-.6,0-.87-.1-.27-.11-.5-.28-.68-.52-.18-.24-.29-.52-.33-.85-.04-.34-.01-.65.1-.92.12-.27.29-.5.53-.67.23-.18.5-.29.81-.33.31-.04.6,0,.87.11.27.11.5.29.67.52.18.23.29.52.34.86ZM98.57,62.07c-.03-.21-.1-.38-.2-.53-.1-.15-.23-.25-.38-.31-.15-.06-.31-.08-.48-.06-.18.02-.33.09-.45.19-.13.1-.22.23-.29.4-.06.17-.08.35-.05.56.03.2.09.37.2.51.11.14.23.25.38.32.15.07.31.09.48.07.17-.02.32-.09.44-.2.13-.11.23-.24.29-.41.07-.16.09-.34.06-.54Z"/>
  <path class="cls-3" d="M102.78,61.45c.05.33.02.63-.09.91-.11.28-.28.51-.51.69-.23.18-.49.29-.8.34-.31.05-.6.02-.88-.09-.27-.11-.49-.28-.68-.51-.19-.23-.31-.51-.36-.84-.04-.33-.01-.64.09-.91.11-.28.27-.51.5-.69.23-.19.5-.3.82-.35.31-.05.59-.02.86.09.27.11.5.28.69.51.19.23.3.51.35.84ZM102.05,61.56c-.03-.2-.1-.38-.2-.52-.1-.14-.23-.24-.39-.31-.15-.07-.31-.09-.48-.06-.18.02-.33.09-.45.2-.13.1-.22.24-.28.41-.06.17-.07.36-.04.56.03.2.1.37.2.51.11.14.23.24.38.31.15.07.32.09.49.07.16-.03.31-.1.44-.2.13-.11.22-.24.28-.41.06-.16.08-.35.04-.55Z"/>
  <path class="cls-3" d="M105.29,58.07c.11-.02.2,0,.28.07.08.06.13.14.14.25l.64,3.76c.02.1,0,.2-.06.28-.06.08-.14.13-.25.14-.11.02-.2,0-.28-.05-.07-.06-.12-.14-.14-.25l-.05-.31.14.03c0,.05-.01.12-.06.2-.04.09-.1.17-.19.26-.09.09-.19.17-.31.24-.12.07-.26.13-.42.15-.28.05-.54.02-.79-.09-.25-.11-.46-.28-.64-.51-.17-.23-.28-.51-.34-.83-.06-.33-.04-.64.04-.91.09-.28.23-.51.43-.69.2-.18.43-.29.7-.34.17-.03.34-.03.49,0,.15.02.29.07.41.14.12.06.22.13.3.2.07.07.11.13.13.19l-.2.12-.27-1.62c-.02-.1,0-.2.05-.28.06-.09.14-.14.25-.16ZM104.72,62.18c.18-.03.33-.11.45-.22.12-.11.2-.25.25-.42.04-.16.05-.34.02-.53-.03-.2-.1-.37-.2-.51-.1-.14-.22-.25-.37-.31-.15-.07-.31-.09-.49-.05-.18.03-.32.1-.44.21-.12.11-.2.25-.26.42-.05.17-.06.35-.03.54.03.19.1.35.2.49.1.14.23.25.37.31.15.07.31.09.48.06Z"/>
  <path class="cls-3" d="M110.32,58.35c.11-.02.2,0,.28.06.09.06.14.14.16.26l.5,2.55c.02.1,0,.2-.06.28-.05.08-.13.13-.24.15-.1.02-.2,0-.28-.05-.08-.06-.13-.14-.14-.25l-.06-.31.14.03c.01.05,0,.12-.05.21-.05.09-.11.17-.19.26-.08.09-.18.18-.31.26-.12.07-.26.13-.42.15-.28.06-.54.04-.79-.06-.25-.1-.47-.27-.65-.49-.18-.23-.3-.5-.37-.83-.07-.33-.06-.64.03-.92.09-.28.22-.51.42-.7.19-.19.42-.31.69-.36.17-.03.34-.04.49,0,.16.02.3.06.42.12.12.06.22.12.3.2.08.07.12.14.14.2l-.2.12-.09-.43c-.02-.11,0-.2.04-.29.06-.09.14-.14.24-.16ZM109.63,61.28c.17-.03.32-.11.43-.22.12-.11.2-.25.24-.42.04-.17.05-.35.02-.54-.04-.2-.11-.37-.21-.5-.1-.14-.23-.24-.38-.31-.15-.06-.31-.08-.48-.04-.17.03-.31.11-.43.22-.12.11-.2.26-.25.43-.05.17-.05.35,0,.54.03.19.1.35.2.49.11.14.24.24.39.3.15.06.31.08.48.04Z"/>
  <path class="cls-3" d="M111.54,61.01c-.06-.04-.09-.11-.1-.2-.01-.09.02-.18.1-.27.06-.04.13-.07.2-.09.07-.01.15.01.24.07.14.1.28.16.43.2.14.03.31.03.5,0,.06-.02.13-.05.2-.08.07-.03.12-.07.16-.13.04-.06.06-.15.03-.26-.02-.09-.06-.15-.14-.19-.07-.04-.16-.07-.26-.09-.11-.02-.23-.03-.35-.04-.13,0-.27,0-.41-.03-.14-.02-.28-.05-.4-.09-.12-.04-.23-.12-.32-.22-.1-.11-.16-.25-.2-.43-.04-.2-.03-.38.06-.54.09-.16.21-.3.37-.42.16-.12.34-.2.54-.24.12-.03.26-.04.4-.04s.28.02.42.07c.14.04.27.1.37.19.06.06.1.13.12.21.03.08,0,.16-.07.24-.05.07-.11.11-.2.12-.08.01-.15,0-.21-.04-.08-.07-.19-.12-.31-.15-.13-.03-.26-.03-.41,0-.06.02-.13.04-.2.07-.07.03-.13.07-.17.14-.04.06-.05.13-.03.23.02.1.06.17.13.2.07.03.16.06.27.08.11.02.23.03.36.03.12.01.26.03.39.04s.26.05.37.1c.12.05.22.13.31.23.1.1.16.24.2.41.04.21.02.4-.07.57-.09.17-.22.3-.39.42-.17.11-.34.19-.53.23-.24.05-.48.06-.74.03-.25-.03-.47-.14-.67-.31Z"/>
  <path class="cls-3" d="M117.68,56.71c.11-.02.2,0,.29.04s.14.13.16.24l.6,2.53c.02.11,0,.2-.04.29s-.13.14-.24.16c-.1.02-.2,0-.28-.04s-.14-.13-.16-.24l-.07-.3.14.03c.01.05,0,.12-.05.21-.04.09-.1.18-.18.27-.07.09-.17.18-.28.26-.11.08-.25.14-.41.17-.27.07-.54.06-.8-.03-.26-.09-.48-.24-.67-.46-.19-.22-.32-.49-.4-.82-.07-.33-.07-.63,0-.91.07-.28.2-.52.38-.71.19-.19.41-.32.67-.38.17-.04.34-.05.49-.03s.29.06.42.11c.13.05.23.11.31.19.08.07.12.13.14.18l-.2.13-.1-.43c-.02-.1,0-.2.04-.28.05-.09.13-.15.23-.17ZM117.11,59.67c.17-.04.32-.13.43-.25.11-.12.19-.26.22-.43s.03-.35-.02-.54c-.05-.19-.12-.35-.23-.48-.1-.14-.23-.23-.39-.29-.15-.06-.32-.06-.49-.02-.17.04-.31.12-.43.24-.11.12-.18.26-.22.43-.04.17-.04.34,0,.54.04.19.12.35.23.48.11.14.25.23.4.29.15.06.31.07.48.03Z"/>
  <path class="cls-3" d="M121.36,58.85c.03.11.02.2-.03.29s-.13.14-.23.17c-.1.02-.2,0-.28-.04s-.14-.13-.17-.24l-.95-3.68c-.03-.1-.01-.2.04-.28.05-.09.13-.15.23-.18.1-.02.2,0,.28.05.08.05.13.13.16.23l.95,3.68Z"/>
  <path class="cls-3" d="M122.58,58.53c.03.11.02.2-.03.29s-.13.14-.24.17c-.1.03-.19.02-.27-.03s-.14-.13-.17-.24l-.65-2.45c-.03-.11-.02-.2.03-.29s.13-.14.22-.17c.11-.03.2-.02.29.03s.14.13.17.24l.65,2.45ZM121.36,55.43c-.14.04-.23.05-.3.02-.07-.03-.11-.11-.14-.22l-.03-.11c-.03-.11-.03-.2.03-.26.05-.06.14-.11.26-.14.14-.04.24-.04.31-.02.07.03.12.1.15.21l.03.11c.03.11.02.2-.03.26-.04.06-.14.11-.27.14Z"/>
  <path class="cls-3" d="M123.53,53.94c.09-.03.18-.04.26-.03.09,0,.17.02.25.06.07.03.12.1.14.19.03.1.02.19-.03.26-.04.07-.1.11-.17.14-.04.01-.1.02-.18.03-.07,0-.14,0-.2.03-.1.03-.18.07-.22.13-.04.06-.06.12-.07.18,0,.06,0,.12.02.16l.83,3.04c.03.1.02.2-.03.28-.05.09-.12.14-.22.17-.11.03-.21.02-.3-.03-.09-.05-.14-.13-.17-.23l-.83-3.03c-.08-.28-.04-.55.1-.8.15-.25.42-.43.81-.54ZM123.96,55.19c.09-.02.17-.01.26.03.09.04.14.11.17.2.02.1,0,.19-.04.26-.05.08-.11.13-.2.15l-1.57.44c-.1.02-.18.01-.26-.03-.08-.04-.13-.11-.15-.21-.03-.1-.02-.18.03-.26.05-.08.12-.13.21-.15l1.57-.44Z"/>
  <path class="cls-3" d="M126.94,57.77c-.34.1-.65.11-.94.04-.28-.07-.53-.2-.73-.4-.2-.2-.34-.46-.43-.76-.1-.36-.11-.68-.04-.97.07-.29.2-.54.38-.75.19-.2.42-.34.68-.42.2-.06.41-.08.61-.04s.4.1.58.2c.18.1.34.24.47.4.14.17.23.35.3.56.02.1,0,.19-.05.27-.05.08-.12.13-.21.16l-2.26.65-.34-.54,2.16-.63-.09.15-.05-.15c-.04-.11-.11-.2-.21-.26-.1-.07-.22-.12-.34-.14-.13-.02-.25-.02-.37.02s-.23.08-.31.14c-.09.06-.17.13-.22.23-.05.1-.08.22-.09.36,0,.14.02.3.08.5.06.21.16.37.29.49.13.12.27.2.43.24.16.04.33.04.48,0,.15-.04.26-.09.34-.14.08-.05.14-.1.18-.14.04-.04.09-.09.13-.13.06-.06.12-.09.19-.11.09-.03.16-.02.24.02.07.04.12.1.14.19.03.1,0,.21-.08.33-.08.12-.2.24-.37.36-.17.12-.34.21-.54.27Z"/>
  <path class="cls-3" d="M128.31,56.77c-.06-.04-.1-.11-.12-.2-.02-.09,0-.18.08-.28.06-.06.12-.09.2-.11.07-.02.15,0,.24.05.15.08.29.13.43.16.15.02.32,0,.51-.06.05-.02.11-.05.18-.09.07-.04.12-.09.15-.15.04-.06.04-.14,0-.25-.03-.09-.08-.15-.15-.19-.07-.03-.16-.05-.26-.06-.11,0-.23,0-.35,0h-.42c-.14,0-.27-.03-.4-.06-.13-.03-.24-.1-.34-.19-.1-.1-.18-.23-.24-.41-.06-.19-.05-.37.02-.54.07-.17.18-.33.32-.45.15-.13.32-.22.51-.28.12-.04.25-.06.39-.08.15-.01.29,0,.43.03.14.02.27.08.39.16.06.05.1.12.14.2.03.07.02.16-.04.25-.05.06-.11.11-.2.13-.08.02-.15.01-.2-.02-.1-.07-.21-.11-.34-.13-.13-.02-.27,0-.41.03-.06.02-.12.05-.19.09-.06.03-.11.08-.14.14-.03.06-.04.14,0,.24.03.09.08.15.15.19.07.03.16.06.27.06.11,0,.23,0,.35,0,.13,0,.26,0,.4,0,.14,0,.26.02.38.06.12.04.24.11.34.2.1.09.18.22.23.39.06.2.05.39-.03.57-.07.18-.19.33-.35.46-.15.13-.32.22-.5.28-.23.07-.48.1-.73.09-.25-.01-.48-.09-.71-.25Z"/>
  <path class="cls-3" d="M130.23,53.31l1.39-.45c.09-.03.18-.02.26.03.09.04.14.11.17.2.03.1.03.19-.02.27-.05.08-.11.13-.2.16l-1.39.45c-.1.03-.19.03-.27-.02-.09-.04-.14-.11-.17-.2-.03-.1-.02-.18.03-.26.04-.08.11-.14.2-.17ZM130.62,52.38c.1-.03.2-.03.28.03.09.05.15.13.19.23l.84,2.6c.02.06.04.1.07.13.03.03.07.05.11.05.04,0,.09,0,.13-.02.05-.02.09-.04.12-.07.03-.03.08-.06.14-.08.05-.02.11,0,.17.03.06.03.11.1.14.19.03.11,0,.22-.09.33-.1.11-.21.18-.35.22-.09.03-.18.05-.29.07-.1.02-.21.01-.31,0-.1-.03-.2-.09-.29-.17-.09-.09-.17-.23-.23-.43l-.85-2.63c-.03-.1-.03-.2.02-.29.05-.1.12-.16.22-.2Z"/>
  <path class="cls-3" d="M134.56,51.82c.1-.03.2-.03.29.02.09.04.15.11.19.21l.84,2.48c.12.35.15.66.09.92-.06.26-.19.47-.38.64-.19.17-.43.3-.71.39-.13.04-.26.08-.41.11-.15.03-.27.04-.37.03-.14,0-.24-.04-.31-.1-.07-.06-.11-.14-.11-.24,0-.12.02-.21.09-.28.07-.07.15-.1.25-.1.07,0,.16,0,.27,0,.11.01.24,0,.37-.05.17-.06.31-.13.42-.21.1-.09.16-.2.19-.34.02-.14,0-.31-.07-.51l-.13-.39.16.09c-.02.15-.07.29-.14.41-.07.11-.17.22-.29.31-.12.09-.27.17-.44.22-.2.07-.4.08-.59.04-.18-.04-.34-.14-.48-.27-.14-.14-.25-.32-.32-.54l-.58-1.7c-.03-.1-.03-.2.02-.28.04-.09.11-.15.2-.19.1-.03.2-.03.29.02.09.04.15.11.19.21l.5,1.49c.09.26.2.42.35.48.15.07.32.07.52,0,.13-.04.23-.11.31-.2.08-.09.13-.19.14-.31s0-.26-.05-.41l-.5-1.49c-.03-.1-.03-.2,0-.29.04-.09.11-.15.21-.18Z"/>
  <path class="cls-3" d="M137.08,54.03c.04.1.04.19,0,.28-.05.09-.12.16-.22.2-.1.03-.19.03-.28-.02-.09-.04-.15-.11-.19-.21l-1.27-3.6c-.03-.1-.03-.19.02-.28.05-.1.12-.16.21-.2.1-.03.2-.03.29.02.09.05.14.12.18.21l1.27,3.6Z"/>
  <path class="cls-3" d="M139.22,53.72c-.33.12-.64.16-.94.11-.29-.05-.54-.17-.76-.36-.21-.19-.37-.43-.48-.73-.12-.34-.16-.67-.11-.96.05-.29.17-.55.35-.77.17-.21.39-.37.65-.47.2-.07.4-.1.6-.08.21.02.4.07.59.16.19.09.35.22.5.37.15.15.26.33.33.54.03.1.02.19-.03.27-.05.08-.11.14-.2.17l-2.21.81-.37-.51,2.11-.78-.08.17-.06-.15c-.05-.11-.13-.2-.24-.26-.1-.06-.22-.1-.34-.12-.12-.02-.24,0-.36.04-.12.05-.23.1-.31.17-.09.07-.15.15-.2.26-.05.1-.07.21-.07.35,0,.14.04.3.11.49.08.2.19.36.32.48.14.11.29.19.46.21.16.03.32.01.48-.04.15-.06.26-.11.33-.16.08-.06.14-.11.17-.15.04-.05.08-.1.11-.14.06-.06.11-.1.18-.13.09-.03.16-.02.24.02.08.03.14.09.17.17.03.1.01.21-.06.33-.07.13-.18.25-.34.38-.16.13-.34.23-.53.31Z"/>
  <path class="cls-3" d="M141.17,52.91c-.11.04-.2.04-.29,0-.08-.03-.14-.11-.19-.22l-.03-.09c-.04-.11-.04-.21,0-.29.03-.09.1-.15.21-.19l.09-.03c.11-.04.2-.04.29,0,.09.03.15.11.19.22l.03.09c.04.11.05.21,0,.29-.03.08-.11.14-.21.18l-.09.03Z"/>
  <g class="cls-10">
    <path class="cls-1" d="M12.2,20.53l1.19,2.4c.19.37.54.63.95.69l2.65.38c1.04.15,1.45,1.43.7,2.16l-1.92,1.88c-.3.29-.44.71-.37,1.12l.45,2.64c.18,1.04-.91,1.82-1.84,1.34l-2.37-1.25c-.37-.19-.81-.19-1.18,0l-2.37,1.25c-.93.49-2.02-.3-1.84-1.34l.45-2.64c.07-.41-.06-.83-.36-1.12l-1.92-1.87c-.75-.73-.34-2.01.7-2.16l2.65-.38c.41-.06.77-.32.95-.69l1.19-2.4c.47-.94,1.81-.94,2.27,0Z"/>
  </g>
  <g class="cls-8">
    <path class="cls-1" d="M4.25,33.44l.59,1.2c.09.19.27.32.48.35l1.33.19c.52.08.73.71.35,1.08l-.96.94c-.15.14-.22.36-.18.56l.23,1.32c.09.52-.46.91-.92.67l-1.18-.62c-.19-.1-.41-.1-.59,0l-1.19.62c-.46.24-1.01-.15-.92-.67l.23-1.32c.04-.2-.03-.41-.18-.56l-.96-.94c-.37-.37-.17-1,.35-1.08l1.33-.19c.21-.03.38-.16.48-.35l.59-1.2c.23-.47.9-.47,1.14,0Z"/>
  </g>
  <g class="cls-11">
    <path class="cls-1" d="M132.54.62l.98,1.98c.15.31.45.52.79.57l2.19.32c.85.13,1.2,1.18.58,1.78l-1.58,1.55c-.24.24-.36.58-.3.93l.37,2.18c.14.85-.75,1.51-1.52,1.1l-1.96-1.03c-.3-.16-.67-.16-.97,0l-1.96,1.03c-.77.4-1.67-.25-1.52-1.1l.37-2.18c.06-.34-.05-.68-.3-.93l-1.58-1.55c-.62-.6-.28-1.66.58-1.78l2.19-.32c.34-.05.63-.27.79-.57l.98-1.98c.38-.78,1.49-.78,1.88,0Z"/>
  </g>
  <g class="cls-5">
    <path class="cls-1" d="M147.52,54.1l.59,1.2c.09.19.27.32.48.35l1.32.19c.52.08.73.71.35,1.08l-.96.94c-.15.14-.22.35-.18.56l.23,1.32c.09.52-.46.91-.92.67l-1.19-.62c-.19-.1-.4-.1-.59,0l-1.18.62c-.47.24-1.01-.15-.92-.67l.23-1.32c.03-.21-.03-.41-.18-.56l-.96-.94c-.38-.37-.17-1,.35-1.08l1.32-.19c.21-.03.38-.16.48-.35l.6-1.2c.23-.47.9-.47,1.14,0Z"/>
  </g>
</svg>